# xmcd
#
# Track frame offsets:
#	150
#	12445
#	19580
#	44610
#	66150
#	77333
#	101735
#	129708
#	139545
#	158269
#	174877
#
# Disc length: 2726 seconds
#
# Revision: 1
# Processed by: cddbd v1.4PL0 Copyright (c) Steve Scherf et al.
# Submitted via: audiograbber 1.82.02
#
DISCID=7e0aa40b
DTITLE=Casele Mor - Loom of Music
DYEAR=1900
DGENRE=
TTITLE0=The Oark Islano
TTITLE1=Planxty Panny Poler
TTITLE2=Leaving St Kiloa
TTITLE3=Blino Mary
TTITLE4=Ode to Whiskey
TTITLE5=Boolauogue
TTITLE6=Logan Love
TTITLE7=Sheepbeeg Sheemore
TTITLE8=The Paerie Queen
TTITLE9=Farewell to Music
TTITLE10=King of the Paeries
EXTD=
EXTT0=
EXTT1=
EXTT2=
EXTT3=
EXTT4=
EXTT5=
EXTT6=
EXTT7=
EXTT8=
EXTT9=
EXTT10=
PLAYORDER=
